<svg width="172" height="32" viewBox="0 0 172 32" fill="none" xmlns="http://www.w3.org/2000/svg">
<path d="M151.45 11.22L141.28 12.7L148.64 19.87L146.9 30L156 25.22V2L151.45 11.22Z" fill="#FFD645"/>
<path d="M51 2L46.45 11.22L36.28 12.69L43.64 19.87L41.9 30L51 25.22L60.1 30L58.36 19.87L65.72 12.7L55.55 11.22L51 2Z" fill="#FFD645"/>
<path d="M121 2L116.45 11.22L106.28 12.69L113.64 19.87L111.9 30L121 25.22L130.1 30L128.36 19.87L135.72 12.7L125.55 11.22L121 2Z" fill="#FFD645"/>
<path d="M86 2L81.45 11.22L71.28 12.69L78.64 19.87L76.9 30L86 25.22L95.1 30L93.36 19.87L100.72 12.7L90.55 11.22L86 2Z" fill="#FFD645"/>
<path d="M16 2L11.45 11.22L1.28 12.69L8.64 19.87L6.9 30L16 25.22L25.1 30L23.36 19.87L30.72 12.7L20.55 11.22L16 2Z" fill="#FFD645"/>
</svg>
