<?xml version="1.0" encoding="iso-8859-1"?>
<!-- Generator: Adobe Illustrator 19.0.0, SVG Export Plug-In . SVG Version: 6.00 Build 0)  -->
<svg version="1.1" id="Layer_1" xmlns="http://www.w3.org/2000/svg" xmlns:xlink="http://www.w3.org/1999/xlink" x="0px" y="0px" viewBox="0 0 512 512" style="enable-background:new 0 0 512 512;" xml:space="preserve">
	<path style="fill:#EFF2FA;" d="M466.102,482.616H45.898c-19.64,0-35.562-15.922-35.562-35.562V101.971
	c0-19.64,15.922-35.562,35.562-35.562h420.203c19.64,0,35.562,15.922,35.562,35.562v345.084
	C501.662,466.695,485.742,482.616,466.102,482.616z" />
	<path style="fill:#FF6464;" d="M501.662,139.978H10.337V95.467c0-16.048,13.01-29.057,29.057-29.057h433.212
	c16.048,0,29.057,13.01,29.057,29.057L501.662,139.978L501.662,139.978z" />
	<path style="fill:#C7CFE2;" d="M71.803,101.433h-3.002c-6.631,0-12.008-5.377-12.008-12.008V41.393
	c0-6.631,5.377-12.008,12.008-12.008h3.002c6.631,0,12.008,5.377,12.008,12.008v48.032C83.811,96.056,78.434,101.433,71.803,101.433
	z" />
	<path style="fill:#AFB9D2;" d="M70.302,74.415c-7.461,0-13.509-6.048-13.509-13.509v27.018c0,7.461,6.048,13.509,13.509,13.509
	s13.509-6.048,13.509-13.509V60.906C83.811,68.367,77.763,74.415,70.302,74.415z" />
	<path style="fill:#C7CFE2;" d="M440.547,101.433h-3.002c-6.631,0-12.008-5.377-12.008-12.008V41.393
	c0-6.631,5.377-12.008,12.008-12.008h3.002c6.631,0,12.008,5.377,12.008,12.008v48.032
	C452.555,96.056,447.178,101.433,440.547,101.433z" />
	<path style="fill:#AFB9D2;" d="M439.046,74.415c-7.461,0-13.509-6.048-13.509-13.509v27.018c0,7.461,6.048,13.509,13.509,13.509
	s13.509-6.048,13.509-13.509V60.906C452.555,68.367,446.507,74.415,439.046,74.415z" />
	<path d="M511.413,139.413L511.413,139.413L511.413,139.413l-0.075-40.026c-0.041-21.77-17.763-39.452-39.525-39.452
	c-0.024,0-0.052,0-0.076,0l-8.506,0.016L463.2,43.439c-0.024-12.943-10.573-23.472-23.56-23.472
	c-12.967,0.024-23.496,10.593-23.472,23.56l0.031,16.511L94.987,60.642l-0.031-16.511c-0.023-12.941-10.571-23.47-23.558-23.47
	c-6.281,0.012-12.181,2.469-16.615,6.919c-4.433,4.45-6.869,10.36-6.857,16.641l0.031,16.511l-8.506,0.016
	c-10.522,0.02-20.431,4.16-27.899,11.657C4.083,79.901-0.02,89.825,0,100.348l0.662,352.233
	c0.041,21.77,17.763,39.454,39.525,39.451c0.024,0,0.052,0,0.076,0l432.285-0.813c10.522-0.02,20.431-4.16,27.899-11.657
	c7.469-7.497,11.572-17.422,11.552-27.943L511.413,139.413z M439.686,34.979c4.681,0,8.497,3.809,8.506,8.49l0.045,23.992
	c0,0.008-0.001,0.016-0.001,0.024c0,0.008,0.001,0.016,0.001,0.024l0.045,23.992c0.004,2.271-0.877,4.409-2.481,6.019
	s-3.738,2.499-6.01,2.503l-0.017,7.505v-7.505c-4.681,0-8.496-3.809-8.505-8.49L431.18,43.5
	C431.171,38.81,434.979,34.988,439.686,34.979z M65.416,38.174c1.604-1.609,3.737-2.499,6.026-2.503c4.681,0,8.496,3.809,8.505,8.49
	l0.09,48.032c0.009,4.69-3.8,8.513-8.49,8.522l-0.017,7.505v-7.505c-4.681,0-8.497-3.809-8.506-8.49l-0.043-24.002
	c0-0.005,0.001-0.01,0.001-0.015c0-0.005-0.001-0.01-0.001-0.015l-0.045-24.001C62.932,41.92,63.813,39.784,65.416,38.174z
	 M489.814,468.97c-4.639,4.657-10.781,7.228-17.294,7.24l-432.285,0.813c-0.017,0-0.031,0-0.047,0
	c-13.496,0-24.49-10.968-24.515-24.47L15.1,147.85l384.755-0.723c4.145-0.008,7.499-3.374,7.491-7.519
	c-0.008-4.141-3.366-7.491-7.505-7.491c-0.004,0-0.01,0-0.014,0l-384.755,0.723L15.01,100.32
	c-0.012-6.513,2.536-12.664,7.176-17.322c4.639-4.657,10.781-7.228,17.294-7.24l8.506-0.016l0.031,16.511
	c0.024,12.943,10.573,23.472,23.516,23.472c0.005,0,0.04,0,0.045,0c12.967-0.024,23.496-10.593,23.472-23.56l-0.031-16.511
	L416.23,75.05l0.031,16.511c0.024,12.943,10.573,23.472,23.515,23.472c0.005,0,0.04,0,0.045,0
	c12.967-0.024,23.496-10.593,23.472-23.56l-0.031-16.511l8.506-0.016c0.017,0,0.03,0,0.047,0c13.496,0,24.49,10.968,24.515,24.47
	l0.061,32.522l-16.511,0.031c-4.145,0.008-7.499,3.374-7.491,7.519c0.008,4.14,3.366,7.491,7.505,7.491c0.005,0,0.01,0,0.015,0
	l16.511-0.031l0.572,304.702C497.002,458.161,494.454,464.312,489.814,468.97z" />
	<path d="M447.872,132.028c-0.005,0-0.01,0-0.015,0l-16.011,0.03c-4.145,0.008-7.499,3.374-7.491,7.519
	c0.008,4.14,3.366,7.491,7.505,7.491c0.005,0,0.01,0,0.015,0l16.011-0.03c4.145-0.008,7.499-3.374,7.491-7.519
	C455.368,135.378,452.009,132.028,447.872,132.028z" />
	<path d="M247.874,219.462c0.005,0,0.01,0,0.015,0l16.011-0.03c4.145-0.008,7.499-3.374,7.491-7.519
	c-0.008-4.14-3.366-7.491-7.505-7.491c-0.005,0-0.01,0-0.015,0l-16.011,0.03c-4.145,0.008-7.499,3.374-7.491,7.519
	C240.377,216.111,243.735,219.462,247.874,219.462z" />
	<path d="M247.949,259.487c0.005,0,0.01,0,0.015,0l16.011-0.03c4.145-0.008,7.499-3.374,7.491-7.519
	c-0.008-4.14-3.366-7.491-7.505-7.491c-0.005,0-0.01,0-0.015,0l-16.011,0.03c-4.145,0.008-7.499,3.374-7.491,7.519
	C240.452,256.137,243.811,259.487,247.949,259.487z" />
	<path d="M248.024,299.514c0.005,0,0.01,0,0.015,0l16.011-0.03c4.145-0.008,7.499-3.374,7.491-7.519
	c-0.008-4.14-3.366-7.491-7.505-7.491c-0.005,0-0.01,0-0.015,0l-16.011,0.03c-4.145,0.008-7.499,3.374-7.491,7.519
	C240.527,296.164,243.886,299.514,248.024,299.514z" />
	<path d="M248.099,339.54c0.005,0,0.01,0,0.015,0l16.011-0.03c4.145-0.008,7.499-3.374,7.491-7.519
	c-0.008-4.14-3.366-7.491-7.505-7.491c-0.005,0-0.01,0-0.015,0l-16.011,0.03c-4.145,0.008-7.499,3.374-7.491,7.519
	C240.602,336.19,243.961,339.54,248.099,339.54z" />
	<path d="M248.174,379.567c0.005,0,0.01,0,0.015,0l16.011-0.03c4.145-0.008,7.499-3.374,7.491-7.519
	c-0.008-4.14-3.366-7.491-7.505-7.491c-0.005,0-0.01,0-0.015,0l-16.011,0.03c-4.145,0.008-7.499,3.374-7.491,7.519
	C240.678,376.217,244.037,379.567,248.174,379.567z" />
	<path d="M264.261,404.553c-0.005,0-0.01,0-0.015,0l-16.011,0.03c-4.145,0.008-7.499,3.374-7.491,7.519
	c0.008,4.14,3.366,7.491,7.505,7.491c0.005,0,0.01,0,0.015,0l16.011-0.03c4.145-0.008,7.499-3.374,7.491-7.519
	C271.758,407.905,268.4,404.553,264.261,404.553z" />
	<path d="M303.911,219.356c0.005,0,0.01,0,0.015,0l16.011-0.03c4.145-0.008,7.499-3.374,7.491-7.519
	c-0.008-4.14-3.366-7.491-7.505-7.491c-0.005,0-0.01,0-0.015,0l-16.011,0.03c-4.145,0.008-7.499,3.374-7.491,7.519
	C296.414,216.006,299.773,219.356,303.911,219.356z" />
	<path d="M303.986,259.382c0.005,0,0.01,0,0.015,0l16.011-0.03c4.145-0.008,7.499-3.374,7.491-7.519
	c-0.008-4.14-3.366-7.491-7.505-7.491c-0.005,0-0.01,0-0.015,0l-16.011,0.03c-4.145,0.008-7.499,3.374-7.491,7.519
	C296.489,256.032,299.848,259.382,303.986,259.382z" />
	<path d="M304.061,299.409c0.005,0,0.01,0,0.015,0l16.011-0.03c4.145-0.008,7.499-3.374,7.491-7.519
	c-0.008-4.14-3.366-7.491-7.505-7.491c-0.005,0-0.01,0-0.015,0l-16.011,0.03c-4.145,0.008-7.499,3.374-7.491,7.519
	C296.564,296.059,299.924,299.409,304.061,299.409z" />
	<path d="M304.136,339.435c0.005,0,0.01,0,0.015,0l16.011-0.03c4.145-0.008,7.499-3.374,7.491-7.519
	c-0.008-4.14-3.366-7.491-7.505-7.491c-0.005,0-0.01,0-0.015,0l-16.011,0.03c-4.145,0.008-7.499,3.374-7.491,7.519
	C296.639,336.085,299.999,339.435,304.136,339.435z" />
	<path d="M304.212,379.462c0.005,0,0.01,0,0.015,0l16.011-0.03c4.145-0.008,7.499-3.374,7.491-7.519
	c-0.008-4.14-3.366-7.491-7.505-7.491c-0.005,0-0.01,0-0.015,0l-16.011,0.03c-4.145,0.008-7.499,3.374-7.491,7.519
	C296.716,376.111,300.074,379.462,304.212,379.462z" />
	<path d="M320.298,404.448c-0.005,0-0.01,0-0.015,0l-16.011,0.03c-4.145,0.008-7.499,3.374-7.491,7.519
	c0.008,4.14,3.366,7.491,7.505,7.491c0.005,0,0.01,0,0.015,0l16.011-0.03c4.145-0.008,7.499-3.374,7.491-7.519
	C327.795,407.8,324.437,404.448,320.298,404.448z" />
	<path d="M191.837,219.567c0.005,0,0.01,0,0.015,0l16.011-0.03c4.145-0.008,7.499-3.374,7.491-7.519
	c-0.008-4.14-3.366-7.491-7.505-7.491c-0.005,0-0.01,0-0.015,0l-16.011,0.03c-4.145,0.008-7.499,3.374-7.491,7.519
	C184.34,216.216,187.698,219.567,191.837,219.567z" />
	<path d="M191.912,259.593c0.005,0,0.01,0,0.015,0l16.011-0.03c4.145-0.008,7.499-3.374,7.491-7.519
	c-0.008-4.14-3.366-7.491-7.505-7.491c-0.005,0-0.01,0-0.015,0l-16.011,0.03c-4.145,0.008-7.499,3.374-7.491,7.519
	C184.415,256.242,187.773,259.593,191.912,259.593z" />
	<path d="M191.987,299.62c0.005,0,0.01,0,0.015,0l16.011-0.03c4.145-0.008,7.499-3.374,7.491-7.519
	c-0.008-4.14-3.366-7.491-7.505-7.491c-0.005,0-0.01,0-0.015,0l-16.011,0.03c-4.145,0.008-7.499,3.374-7.491,7.519
	C184.49,296.269,187.849,299.62,191.987,299.62z" />
	<path d="M192.062,339.646c0.005,0,0.01,0,0.015,0l16.011-0.03c4.145-0.008,7.499-3.374,7.491-7.519
	c-0.008-4.14-3.366-7.491-7.505-7.491c-0.005,0-0.01,0-0.015,0l-16.011,0.03c-4.145,0.008-7.499,3.374-7.491,7.519
	C184.565,336.295,187.924,339.646,192.062,339.646z" />
	<path d="M192.137,379.673c0.005,0,0.01,0,0.015,0l16.011-0.03c4.145-0.008,7.499-3.374,7.491-7.519
	c-0.008-4.14-3.366-7.491-7.505-7.491c-0.005,0-0.01,0-0.015,0l-16.011,0.03c-4.145,0.008-7.499,3.374-7.491,7.519
	C184.641,376.322,188,379.673,192.137,379.673z" />
	<path d="M208.225,404.659c-0.005,0-0.01,0-0.015,0l-16.011,0.03c-4.145,0.008-7.499,3.374-7.491,7.519
	c0.008,4.14,3.366,7.491,7.505,7.491c0.005,0,0.01,0,0.015,0l16.011-0.03c4.145-0.008,7.499-3.374,7.491-7.519
	C215.721,408.01,212.363,404.659,208.225,404.659z" />
	<path d="M135.8,219.672c0.005,0,0.01,0,0.015,0l16.011-0.03c4.145-0.008,7.499-3.374,7.491-7.519
	c-0.008-4.14-3.366-7.491-7.505-7.491c-0.005,0-0.01,0-0.015,0l-16.011,0.03c-4.145,0.008-7.499,3.374-7.491,7.519
	C128.303,216.322,131.662,219.672,135.8,219.672z" />
	<path d="M135.875,259.699c0.005,0,0.01,0,0.015,0l16.011-0.03c4.145-0.008,7.499-3.374,7.491-7.519
	c-0.008-4.14-3.366-7.491-7.505-7.491c-0.005,0-0.01,0-0.015,0l-16.011,0.03c-4.145,0.008-7.499,3.374-7.491,7.519
	C128.379,256.348,131.737,259.699,135.875,259.699z" />
	<path d="M135.95,299.725c0.005,0,0.01,0,0.015,0l16.011-0.03c4.145-0.008,7.499-3.374,7.491-7.519
	c-0.008-4.14-3.366-7.491-7.505-7.491c-0.005,0-0.01,0-0.015,0l-16.011,0.03c-4.145,0.008-7.499,3.374-7.491,7.519
	C128.454,296.374,131.812,299.725,135.95,299.725z" />
	<path d="M136.026,339.752c0.005,0,0.01,0,0.015,0l16.011-0.03c4.145-0.008,7.499-3.374,7.491-7.519
	c-0.008-4.14-3.366-7.491-7.505-7.491c-0.005,0-0.01,0-0.015,0l-16.011,0.03c-4.145,0.008-7.499,3.374-7.491,7.519
	C128.529,336.4,131.887,339.752,136.026,339.752z" />
	<path d="M136.101,379.778c0.005,0,0.01,0,0.015,0l16.011-0.03c4.145-0.008,7.499-3.374,7.491-7.519
	c-0.008-4.14-3.366-7.491-7.505-7.491c-0.005,0-0.01,0-0.015,0l-16.011,0.03c-4.145,0.008-7.499,3.374-7.491,7.519
	C128.604,376.427,131.962,379.778,136.101,379.778z" />
	<path d="M152.188,404.764c-0.005,0-0.01,0-0.015,0l-16.011,0.03c-4.145,0.008-7.499,3.374-7.491,7.519
	c0.008,4.14,3.366,7.491,7.505,7.491c0.005,0,0.01,0,0.015,0l16.011-0.03c4.145-0.008,7.499-3.374,7.491-7.519
	C159.684,408.115,156.326,404.764,152.188,404.764z" />
	<path d="M359.948,219.251c0.005,0,0.01,0,0.015,0l16.011-0.03c4.145-0.008,7.499-3.374,7.491-7.519
	c-0.008-4.14-3.366-7.491-7.505-7.491c-0.005,0-0.01,0-0.015,0l-16.011,0.03c-4.145,0.008-7.499,3.374-7.491,7.519
	C352.451,215.9,355.81,219.251,359.948,219.251z" />
	<path d="M360.023,259.277c0.005,0,0.01,0,0.015,0l16.011-0.03c4.145-0.008,7.499-3.374,7.491-7.519
	c-0.008-4.14-3.366-7.491-7.505-7.491c-0.005,0-0.01,0-0.015,0l-16.011,0.03c-4.145,0.008-7.499,3.374-7.491,7.519
	C352.526,255.926,355.885,259.277,360.023,259.277z" />
	<path d="M360.098,299.304c0.005,0,0.01,0,0.015,0l16.011-0.03c4.145-0.008,7.499-3.374,7.491-7.519
	c-0.008-4.14-3.366-7.491-7.505-7.491c-0.005,0-0.01,0-0.015,0l-16.011,0.03c-4.145,0.008-7.499,3.374-7.491,7.519
	C352.602,295.953,355.96,299.304,360.098,299.304z" />
	<path d="M360.174,339.33c0.005,0,0.01,0,0.015,0l16.011-0.03c4.145-0.008,7.499-3.374,7.491-7.519
	c-0.008-4.14-3.366-7.491-7.505-7.491c-0.005,0-0.01,0-0.015,0l-16.011,0.03c-4.145,0.008-7.499,3.374-7.491,7.519
	C352.677,335.979,356.036,339.33,360.174,339.33z" />
	<path d="M360.249,379.357c0.005,0,0.01,0,0.015,0l16.011-0.03c4.145-0.008,7.499-3.374,7.491-7.519s-3.405-7.468-7.519-7.491
	l-16.011,0.03c-4.145,0.008-7.499,3.374-7.491,7.519C352.753,376.006,356.111,379.357,360.249,379.357z" />
	<path d="M376.335,404.343c-0.005,0-0.01,0-0.015,0l-16.011,0.03c-4.145,0.008-7.499,3.374-7.491,7.519
	c0.008,4.14,3.366,7.491,7.505,7.491c0.005,0,0.01,0,0.015,0l16.011-0.03c4.145-0.008,7.499-3.374,7.491-7.519
	C383.832,407.694,380.474,404.343,376.335,404.343z" />
	<path d="M415.986,219.146c0.005,0,0.01,0,0.015,0l16.011-0.03c4.145-0.008,7.499-3.374,7.491-7.519
	c-0.008-4.14-3.366-7.491-7.505-7.491c-0.005,0-0.01,0-0.015,0l-16.011,0.03c-4.145,0.008-7.499,3.374-7.491,7.519
	C408.489,215.794,411.847,219.146,415.986,219.146z" />
	<path d="M416.061,259.172c0.005,0,0.01,0,0.015,0l16.011-0.03c4.145-0.008,7.499-3.374,7.491-7.519
	c-0.008-4.14-3.366-7.491-7.505-7.491c-0.005,0-0.01,0-0.015,0l-16.011,0.03c-4.145,0.008-7.499,3.374-7.491,7.519
	C408.564,255.821,411.922,259.172,416.061,259.172z" />
	<path d="M416.136,299.199c0.005,0,0.01,0,0.015,0l16.011-0.03c4.145-0.008,7.499-3.374,7.491-7.519
	c-0.008-4.14-3.366-7.491-7.505-7.491c-0.005,0-0.01,0-0.015,0l-16.011,0.03c-4.145,0.008-7.499,3.374-7.491,7.519
	C408.639,295.847,411.998,299.199,416.136,299.199z" />
	<path d="M416.211,339.224c0.005,0,0.01,0,0.015,0l16.011-0.03c4.145-0.008,7.499-3.374,7.491-7.519
	c-0.008-4.14-3.366-7.491-7.505-7.491c-0.005,0-0.01,0-0.015,0l-16.011,0.03c-4.145,0.008-7.499,3.374-7.491,7.519
	C408.714,335.874,412.072,339.224,416.211,339.224z" />
	<path d="M416.286,379.251c0.005,0,0.01,0,0.015,0l16.011-0.03c4.145-0.008,7.499-3.374,7.491-7.519
	c-0.008-4.14-3.366-7.491-7.505-7.491c-0.005,0-0.01,0-0.015,0l-16.011,0.03c-4.145,0.008-7.499,3.374-7.491,7.519
	C408.79,375.9,412.148,379.251,416.286,379.251z" />
	<path d="M432.372,404.238c-0.005,0-0.01,0-0.015,0l-16.011,0.03c-4.145,0.008-7.499,3.374-7.491,7.519
	c0.008,4.14,3.366,7.491,7.505,7.491c0.005,0,0.01,0,0.015,0l16.011-0.03c4.145-0.008,7.499-3.374,7.491-7.519
	C439.869,407.588,436.511,404.238,432.372,404.238z" />
	<path d="M79.763,219.777c0.005,0,0.01,0,0.015,0l16.011-0.03c4.145-0.008,7.499-3.374,7.491-7.519
	c-0.008-4.14-3.366-7.491-7.505-7.491c-0.005,0-0.01,0-0.015,0l-16.011,0.03c-4.145,0.008-7.499,3.374-7.491,7.519
	C72.266,216.427,75.624,219.777,79.763,219.777z" />
	<path d="M79.838,259.804c0.005,0,0.01,0,0.015,0l16.011-0.03c4.145-0.008,7.499-3.374,7.491-7.519
	c-0.008-4.14-3.366-7.491-7.505-7.491c-0.005,0-0.01,0-0.015,0l-16.011,0.03c-4.145,0.008-7.499,3.374-7.491,7.519
	C72.342,256.453,75.699,259.804,79.838,259.804z" />
	<path d="M79.913,299.83c0.005,0,0.01,0,0.015,0l16.011-0.03c4.145-0.008,7.499-3.374,7.491-7.519
	c-0.008-4.14-3.366-7.491-7.505-7.491c-0.005,0-0.01,0-0.015,0l-16.011,0.03c-4.145,0.008-7.499,3.374-7.491,7.519
	C72.417,296.48,75.775,299.83,79.913,299.83z" />
	<path d="M79.989,339.857c0.005,0,0.01,0,0.015,0l16.011-0.03c4.145-0.008,7.499-3.374,7.491-7.519
	c-0.008-4.14-3.366-7.491-7.505-7.491c-0.005,0-0.01,0-0.015,0l-16.011,0.03c-4.145,0.008-7.499,3.374-7.491,7.519
	C72.492,336.506,75.85,339.857,79.989,339.857z" />
	<path d="M80.064,379.883c0.005,0,0.01,0,0.015,0l16.011-0.03c4.145-0.008,7.499-3.374,7.491-7.519
	c-0.008-4.14-3.366-7.491-7.505-7.491c-0.005,0-0.01,0-0.015,0l-16.011,0.03c-4.145,0.008-7.499,3.374-7.491,7.519
	C72.567,376.533,75.926,379.883,80.064,379.883z" />
	<path d="M96.151,404.87c-0.005,0-0.01,0-0.015,0l-16.011,0.03c-4.145,0.008-7.499,3.374-7.491,7.519
	c0.008,4.14,3.366,7.491,7.505,7.491c0.005,0,0.01,0,0.015,0l16.011-0.03c4.145-0.008,7.499-3.374,7.491-7.519
	C103.648,408.221,100.288,404.87,96.151,404.87z" />
	<g></g>
	<g></g>
	<g></g>
	<g></g>
	<g></g>
	<g></g>
	<g></g>
	<g></g>
	<g></g>
	<g></g>
	<g></g>
	<g></g>
	<g></g>
	<g></g>
	<g></g>
</svg>