<svg width="30" height="30" viewBox="0 0 30 30" fill="none" xmlns="http://www.w3.org/2000/svg">
<path d="M24.6846 29.5944H6.1402C4.99703 29.5944 4.07031 28.6677 4.07031 27.5245V12.3914H26.7545V27.5246C26.7545 28.6677 25.8278 29.5944 24.6846 29.5944Z" fill="#00B89C"/>
<path d="M26.7546 17.7319H4.0704V12.2654H26.7546V17.7319ZM24.1868 0.442322L2.48169 7.03482L4.07034 12.2654L25.7755 5.67293L24.1868 0.442322Z" fill="#B9C5C6"/>
<path d="M8.01077 17.7319H4.0704V15.9717L6.28911 12.2654H11.2833L8.01077 17.7319ZM11.4491 17.7319H16.4432L19.7156 12.2654H14.7216L11.4491 17.7319ZM19.8815 17.7319H24.8756L26.7546 14.5932V12.2654H23.154L19.8815 17.7319ZM17.6003 2.44283L22.3202 6.72234L25.7755 5.67287L25.104 3.4623L22.3789 0.991402L17.6003 2.44283ZM14.2518 9.17297L19.0303 7.7216L14.3104 3.44209L9.53186 4.89345L14.2518 9.17297ZM10.9619 10.1722L6.242 5.89271L2.48169 7.03476L2.99831 8.7358L6.18329 11.6236L10.9619 10.1722Z" fill="#445056"/>
</svg>
