<?xml version="1.0" encoding="iso-8859-1"?>
<!-- Generator: Adobe Illustrator 19.0.0, SVG Export Plug-In . SVG Version: 6.00 Build 0)  -->
<svg version="1.1" id="Layer_1" xmlns="http://www.w3.org/2000/svg" xmlns:xlink="http://www.w3.org/1999/xlink" x="0px" y="0px" viewBox="0 0 512 512" style="enable-background:new 0 0 512 512;" xml:space="preserve">
	<path style="fill:#9c382d;" d="M469.779,109.899H42.221c-18.891,0-34.205,15.314-34.205,34.205v171.023
	c0,18.891,15.314,34.205,34.205,34.205h153.936l-0.003,0.003l47.757,47.757c6.678,6.68,17.507,6.68,24.186,0l47.757-47.757
	l-0.003-0.003h153.928c18.891,0,34.205-15.314,34.205-34.205V144.103C503.983,125.213,488.669,109.899,469.779,109.899z" />
	<path d="M469.779,101.882H42.221C18.941,101.882,0,120.823,0,144.103v171.023c0,23.28,18.941,42.221,42.221,42.221h150.608
	l45.412,45.413c4.744,4.744,11.052,7.357,17.762,7.357c6.709,0,13.018-2.612,17.762-7.357l45.413-45.413h150.601
	c23.28,0,42.221-18.941,42.221-42.221V144.103C512,120.823,493.059,101.882,469.779,101.882z M495.967,315.126
	c0,14.44-11.748,26.188-26.188,26.188H315.851c-2.25,0-4.345,0.942-5.832,2.518l-47.59,47.59c-1.716,1.716-3.998,2.662-6.425,2.662
	s-4.708-0.945-6.424-2.662l-47.549-47.549c-1.49-1.603-3.603-2.561-5.874-2.561H42.221c-14.44,0-26.188-11.748-26.188-26.188
	V144.102c0-14.44,11.748-26.188,26.188-26.188h427.557c14.44,0,26.188,11.748,26.188,26.188V315.126z" />
	<path d="M153.386,170.292c-4.427,0-8.017,3.589-8.017,8.017v43.29H92.994v-43.29c0-4.427-3.589-8.017-8.017-8.017
	c-4.427,0-8.017,3.589-8.017,8.017v102.614c0,4.427,3.589,8.017,8.017,8.017c4.427,0,8.017-3.589,8.017-8.017v-43.29h52.376v43.29
	c0,4.427,3.589,8.017,8.017,8.017c4.427,0,8.017-3.589,8.017-8.017V178.309C161.403,173.882,157.815,170.292,153.386,170.292z" />
	<path d="M341.511,272.905h-51.307c-0.295,0-0.534-0.239-0.534-0.534v-94.063c0-4.427-3.589-8.017-8.017-8.017
	c-4.427,0-8.017,3.589-8.017,8.017v94.063c0,9.136,7.432,16.568,16.568,16.568h51.307c4.427,0,8.017-3.589,8.017-8.017
	C349.528,276.494,345.939,272.905,341.511,272.905z" />
	<path d="M196.142,186.325h51.307c4.427,0,8.017-3.589,8.017-8.017s-3.589-8.017-8.017-8.017h-51.307
	c-9.136,0-16.568,7.432-16.568,16.568v85.512c0,9.136,7.432,16.568,16.568,16.568h51.307c4.427,0,8.017-3.589,8.017-8.017
	c0-4.427-3.589-8.017-8.017-8.017h-51.307c-0.295,0-0.534-0.239-0.534-0.534v-34.739h34.739c4.427,0,8.017-3.589,8.017-8.017
	s-3.589-8.017-8.017-8.017h-34.739v-34.739C195.608,186.565,195.847,186.325,196.142,186.325z" />
	<path d="M401.37,170.291h-25.653c-9.136,0-16.568,7.432-16.568,16.568v94.063c0,4.427,3.589,8.017,8.017,8.017
	c4.427,0,8.017-3.589,8.017-8.017v-26.188h26.188c23.28,0,42.221-18.941,42.221-42.221S424.65,170.291,401.37,170.291z
	 M401.37,238.701h-26.188v-51.841c0-0.295,0.239-0.534,0.534-0.534h25.653c14.44,0,26.188,11.748,26.188,26.188
	C427.557,226.952,415.809,238.701,401.37,238.701z" />
	<g></g>
	<g></g>
	<g></g>
	<g></g>
	<g></g>
	<g></g>
	<g></g>
	<g></g>
	<g></g>
	<g></g>
	<g></g>
	<g></g>
	<g></g>
	<g></g>
	<g></g>
</svg>