<?xml version="1.0" encoding="iso-8859-1"?>
<!-- Generator: Adobe Illustrator 19.0.0, SVG Export Plug-In . SVG Version: 6.00 Build 0)  -->
<svg version="1.1" id="Layer_1" xmlns="http://www.w3.org/2000/svg" xmlns:xlink="http://www.w3.org/1999/xlink" x="0px" y="0px" viewBox="0 0 512 512" style="enable-background:new 0 0 512 512;" xml:space="preserve">
	<path style="fill:#9c382d;" d="M478.33,16.568H307.307c-14.168,0-25.653,11.485-25.653,25.653v94.063
	c0,14.168,11.485,25.653,25.653,25.653v28.128c0,5.398,6.527,8.101,10.344,4.284l32.412-32.412H478.33
	c14.168,0,25.653-11.485,25.653-25.653V42.221C503.983,28.053,492.498,16.568,478.33,16.568z" />
	<path style="fill:#5A4146;" d="M273.004,348.038c0.061,6.511-3.65,12.465-9.442,15.126c-28.404,13.049-67.292,21.103-110.216,21.103
	s-81.812-8.055-110.216-21.103c-5.791-2.66-9.502-8.614-9.442-15.126c1.15-122.464,23.471-228.857,119.658-228.857
	S271.855,225.574,273.004,348.038z" />
	<path style="fill:#E6AF78;" d="M282.969,420.445l-76.303-31.793c-6.373-2.655-10.524-8.883-10.524-15.788V352.2H110.63v20.665
	c0,6.904-4.152,13.131-10.524,15.788l-76.303,31.793c-9.559,3.982-15.786,13.323-15.786,23.679v34.205
	c0,9.445,7.658,17.102,17.102,17.102h256.534c9.445,0,17.102-7.658,17.102-17.102v-34.205
	C298.756,433.769,292.528,424.428,282.969,420.445z" />
	<path style="fill:#D29B6E;" d="M196.142,352.2H110.63v20.665c0,6.904-4.152,13.131-10.524,15.788l-11.917,4.966
	C179.385,416.872,196.142,352.2,196.142,352.2z" />
	<path style="fill:#9c382d;" d="M282.969,420.445L226.58,396.95c-36.86,46.306-73.194,55.727-73.194,55.727
	s-36.334-9.421-73.194-55.727l-56.389,23.495c-9.559,3.983-15.786,13.324-15.786,23.68v34.205c0,9.445,7.658,17.102,17.102,17.102
	h256.534c9.445,0,17.102-7.658,17.102-17.102v-34.205C298.756,433.769,292.528,424.428,282.969,420.445z" />
	<path style="fill:#F0C087;" d="M238.898,238.898l-6.914,76.045c-1.025,11.271-7.559,21.307-17.453,26.804l-44.534,24.742
	c-10.331,5.739-22.891,5.739-33.222,0l-44.533-24.742c-9.894-5.496-16.428-15.532-17.453-26.804l-6.914-76.045
	c0,0,94.063-8.551,136.818-34.205C204.693,204.693,213.244,230.347,238.898,238.898z" />
	<g>
		<path style="fill:#707487;" d="M251.724,256h-14.382l-4.665,51.307h19.047c4.722,0,8.551-3.829,8.551-8.551v-34.205
		C260.276,259.829,256.447,256,251.724,256z" />
		<path style="fill:#707487;" d="M69.43,256H55.048c-4.722,0-8.551,3.829-8.551,8.551v34.205c0,4.722,3.829,8.551,8.551,8.551h19.046
		L69.43,256z" />
	</g>
	<g>
		<path style="fill:#A5D76E;" d="M49.696,453.525l-34.323-27.302c-4.598,4.703-7.355,11.062-7.355,17.902v34.205
		c0,9.445,7.658,17.102,17.102,17.102h34.205v-21.875C59.324,465.764,55.781,458.394,49.696,453.525z" />
		<path style="fill:#A5D76E;" d="M298.756,478.33v-34.205c0-6.786-2.711-13.103-7.245-17.795l-34.434,27.195
		c-6.085,4.869-9.628,12.239-9.628,20.032v21.875h34.205C291.098,495.432,298.756,487.775,298.756,478.33z" />
	</g>
	<path style="fill:#E6AF78;" d="M143.67,369.324c2.179,0.633,4.403,1.073,6.645,1.275h0.001l-13.369-22.282
	c-6.063-10.104-9.725-21.466-10.703-33.207l-5.996-50.217c-0.532-4.464,2.462-8.539,6.875-9.4
	c22.853-4.456,48.376-10.861,69.018-19.802c6.942,10.05,18.364,21.836,35.937,27.694l1.819,0.606l2.681,0.405l2.318-25.498
	c-25.653-8.551-34.205-34.205-34.205-34.205c-42.756,25.653-136.818,34.205-136.818,34.205l1.549,17.032l5.365,59.013
	c0.255,2.818,0.857,5.559,1.767,8.171c1.588,4.553,4.169,8.673,7.468,12.169c2.379,2.52,5.108,4.737,8.218,6.465l44.532,24.741
	c1.988,1.104,4.072,1.941,6.194,2.608C143.204,369.17,143.435,369.255,143.67,369.324z" />
	<path style="fill:#A5D76E;" d="M226.581,396.95c-36.861,46.306-73.195,55.727-73.195,55.727s-36.334-9.421-73.195-55.727
	l-19.937,8.306c44.712,57.099,87.378,69.995,89.272,70.539l3.86,1.108l3.86-1.108c1.893-0.544,44.56-13.439,89.272-70.539
	L226.581,396.95z" />
	<path d="M286.053,413.045l-73.595-30.664c21.063-3.824,40.496-9.734,56.571-17.247c7.405-3.46,12.15-10.929,12.09-19.03
	c-0.745-100.857-14.797-234.94-127.733-234.94S26.398,245.248,25.653,346.105c-0.06,8.099,4.685,15.568,12.09,19.028
	c16.076,7.512,35.51,13.422,56.572,17.247l-73.595,30.664C8.133,418.29,0,430.489,0,444.125v34.205
	c0,13.851,11.268,25.119,25.119,25.119h256.534c13.851,0,25.119-11.268,25.119-25.119v-34.205
	C306.772,430.489,298.639,418.29,286.053,413.045z M239.432,473.557v13.858H67.34v-13.858c0-10.285-4.606-19.868-12.636-26.293
	l-25.488-20.39l49.431-20.597c0.025,0.032,0.045,0.067,0.071,0.099c35.487,44.358,71.22,53.7,72.725,54.076
	c0.638,0.159,1.291,0.239,1.944,0.239s1.306-0.08,1.944-0.239c1.504-0.376,37.238-9.718,72.725-54.076
	c0.026-0.032,0.046-0.067,0.071-0.099l49.431,20.597l-25.488,20.39C244.038,453.69,239.432,463.272,239.432,473.557z
	 M241.458,299.29l3.207-35.273h2.784c5.01,0,9.086,4.076,9.086,9.086v17.102c0,5.01-4.076,9.086-9.086,9.086H241.458z
	 M224.866,304.7c-6.547,5.79-27.311,20.244-71.48,20.244c-4.427,0-8.017,3.589-8.017,8.017c0,4.427,3.589,8.017,8.017,8.017
	c30.692,0,51.696-6.427,65.319-13.21c-2.153,2.811-4.877,5.2-8.066,6.972l-44.535,24.741c-7.963,4.424-17.472,4.424-25.435,0
	l-44.534-24.741c-7.582-4.213-12.578-11.884-13.362-20.522l-6.197-68.165c22.402-2.53,86.048-11.097,124.426-30.22
	c4.615,8.457,13.706,21.087,29.372,28.303L224.866,304.7z M118.647,372.865v-7.278l14.234,7.908
	c6.421,3.567,13.462,5.35,20.505,5.35c7.042,0,14.086-1.784,20.505-5.35l14.234-7.908v7.278c0,10.174,6.067,19.274,15.457,23.186
	l9.096,3.79c-26.389,31.481-52.196,42.011-59.316,44.449c-7.151-2.406-32.725-12.754-59.271-44.449l9.097-3.791
	C112.58,392.14,118.647,383.039,118.647,372.865z M262.24,350.608c-16.202,7.571-36.258,13.409-58.082,16.929V356.68l14.267-7.926
	c12.224-6.792,20.277-19.16,21.542-33.085l0.031-0.345h7.449c6.356,0,12.163-2.377,16.592-6.283
	c0.601,11.758,0.947,24.146,1.044,37.184C265.099,348.073,263.983,349.793,262.24,350.608z M153.386,127.198
	c41.417,0,70.349,20.662,88.451,63.165c7.048,16.549,12.462,36.457,16.288,60.009c-3.242-1.53-6.86-2.388-10.676-2.388h-1.328
	l0.76-8.36c0.337-3.705-1.92-7.154-5.449-8.331c-21.373-7.124-29.07-28.946-29.134-29.135c-0.77-2.307-2.543-4.14-4.824-4.983
	s-4.821-0.606-6.906,0.645c-40.679,24.407-132.498,33.011-133.42,33.095c-4.409,0.401-7.659,4.301-7.258,8.709l0.761,8.359h-1.328
	c-3.816,0-7.434,0.859-10.676,2.388c3.826-23.552,9.24-43.459,16.288-60.009C83.037,147.86,111.969,127.198,153.386,127.198z
	 M65.315,299.29h-5.991c-5.01,0-9.086-4.076-9.086-9.086v-17.102c0-5.01,4.076-9.086,9.086-9.086h2.784L65.315,299.29z
	 M41.687,346.223c0.096-13.037,0.444-25.425,1.044-37.184c4.429,3.907,10.237,6.284,16.592,6.284h7.449l0.031,0.345
	c1.266,13.927,9.32,26.295,21.544,33.085l14.267,7.925v10.857c-21.824-3.52-41.879-9.357-58.082-16.929
	C42.79,349.793,41.673,348.073,41.687,346.223z M16.033,478.33v-34.205c0-2.21,0.41-4.348,1.169-6.329l27.486,21.989
	c4.207,3.365,6.619,8.384,6.619,13.772v13.858H25.119C20.109,487.415,16.033,483.34,16.033,478.33z M290.739,478.33
	c0,5.01-4.076,9.086-9.086,9.086h-26.188v-13.858c0-5.387,2.412-10.407,6.619-13.773l27.486-21.988
	c0.759,1.981,1.169,4.118,1.169,6.329V478.33z" />
	<path d="M478.33,8.551H307.307c-18.566,0-33.67,15.105-33.67,33.67v94.063c0,15.805,10.945,29.101,25.653,32.706v35.703
	c0,3.242,1.953,6.166,4.949,7.406c0.992,0.41,2.033,0.61,3.067,0.61c2.086,0,4.137-0.814,5.67-2.348l40.406-40.407H478.33
	c18.566,0,33.67-15.105,33.67-33.67V42.221C512,23.656,496.895,8.551,478.33,8.551z M495.967,136.284
	c0,9.725-7.912,17.637-17.637,17.637H350.063c-2.126,0-4.165,0.844-5.668,2.348l-29.071,29.071v-23.402
	c0-4.427-3.589-8.017-8.017-8.017c-9.725,0-17.637-7.912-17.637-17.637V42.221c0-9.725,7.912-17.637,17.637-17.637H478.33
	c9.725,0,17.637,7.912,17.637,17.637V136.284z" />
	<path d="M362.894,112.124c2.376-4.24,3.737-9.123,3.737-14.32V80.701c0-16.209-13.186-29.395-29.395-29.395
	c-16.209,0-29.395,13.186-29.395,29.395v17.102c0,16.209,13.186,29.395,29.395,29.395c5.197,0,10.08-1.361,14.32-3.738l1.39,1.39
	c1.565,1.565,3.617,2.348,5.668,2.348c2.051,0,4.103-0.782,5.668-2.348c3.131-3.131,3.131-8.206,0-11.337L362.894,112.124z
	 M337.236,111.165c-7.368,0-13.361-5.993-13.361-13.361V80.701c0-7.368,5.993-13.361,13.361-13.361s13.361,5.993,13.361,13.361
	v17.102c0,0.638-0.061,1.261-0.147,1.876l-3.27-3.27c-3.131-3.131-8.207-3.131-11.337,0c-3.131,3.131-3.131,8.206,0,11.337
	l3.27,3.27C338.497,111.104,337.874,111.165,337.236,111.165z" />
	<path d="M412.456,43.167c-4.2-1.401-8.74,0.87-10.141,5.071l-25.653,76.96c-1.4,4.2,0.87,8.74,5.071,10.141
	c0.841,0.28,1.695,0.414,2.536,0.414c3.356,0,6.484-2.124,7.604-5.483l25.653-76.96C418.926,49.107,416.656,44.568,412.456,43.167z" />
	<path d="M460.384,57.121c-0.982-3.441-4.128-5.814-7.708-5.814h-8.551c-3.58,0-6.725,2.373-7.708,5.814l-17.102,59.858
	c-1.216,4.257,1.248,8.694,5.506,9.911c4.257,1.216,8.694-1.247,9.911-5.506l3.225-11.288h20.889l3.225,11.289
	c1.006,3.521,4.216,5.816,7.705,5.816c0.729,0,1.471-0.1,2.206-0.311c4.256-1.216,6.722-5.653,5.506-9.911L460.384,57.121z
	 M442.537,94.063l5.864-20.523l5.864,20.523H442.537z" />
	<g></g>
	<g></g>
	<g></g>
	<g></g>
	<g></g>
	<g></g>
	<g></g>
	<g></g>
	<g></g>
	<g></g>
	<g></g>
	<g></g>
	<g></g>
	<g></g>
	<g></g>
</svg>