<svg width="24" height="24" viewBox="0 0 24 24" fill="none" xmlns="http://www.w3.org/2000/svg">
<path d="M16 15C16 14.7348 15.8946 14.4804 15.7071 14.2929C15.5196 14.1054 15.2652 14 15 14H9C8.449 14 8 14.448 8 15V17H16V15ZM8 19H16V22H8V19Z" fill="white" fill-opacity="0.8"/>
<path d="M21 12C21 9.033 18.833 6.568 16 6.09V5C16 3.346 14.654 2 13 2H11C9.346 2 8 3.346 8 5V6.09C5.167 6.568 3 9.033 3 12V20C3 21.103 3.897 22 5 22H6V15C6 13.346 7.346 12 9 12H15C16.654 12 18 13.346 18 15V22H19C20.103 22 21 21.103 21 20V12ZM10 5C10 4.448 10.449 4 11 4H13C13.2652 4 13.5196 4.10536 13.7071 4.29289C13.8946 4.48043 14 4.73478 14 5V6H10V5Z" fill="white" fill-opacity="0.8"/>
</svg>
