<svg width="42" height="43" viewBox="0 0 42 43" fill="none" xmlns="http://www.w3.org/2000/svg">
<path d="M15.9812 32.7352C16.886 32.7775 17.3673 32.9358 17.9896 33.5459C18.1436 33.6969 18.5644 34.2694 18.0028 34.1121C17.6084 34.0017 17.0281 33.242 16.9395 32.851C16.7605 32.0617 17.2624 31.8087 17.9896 31.8087C18.2951 31.8087 17.4574 32.1629 17.0445 32.3878C16.505 32.6816 14.0909 33.8611 14.0909 32.7352C14.0909 32.4241 14.2608 31.1209 13.8021 31.5256C13.2079 32.0498 12.9094 32.3703 12.9094 33.1985C12.9094 34.6674 13.6435 34.6781 14.931 35.0387C15.9296 35.3183 17.8164 35.2832 18.8167 35.2832C20.1569 35.2832 21.9979 35.9572 23.2011 35.2832C24.45 34.5836 26.1416 34.6791 26.1416 33.0827C26.1416 30.8395 22.1012 30.4189 20.4707 30.4189C19.0529 30.4189 17.6352 30.4189 16.2175 30.4189C13.826 30.4189 16.6873 33.2141 17.6352 33.5459C19.025 34.0325 20.6421 33.9741 22.1247 33.8934C22.5806 33.8686 21.0145 32.3281 20.4707 32.272C18.997 32.1199 21.1868 32.0403 21.5996 32.0403C23.0298 32.0403 24.3357 31.8856 25.6691 31.8087C25.8998 31.7954 27.0488 31.1753 27.0868 31.8087C27.1231 32.4146 27.1904 32.9161 26.6142 33.1985" stroke="#BC0000" stroke-width="3" stroke-linecap="round"/>
<path d="M22.5361 30.8792C23.8072 30.6312 26.8257 30.3395 26.8257 32.4878C26.8257 33.1512 26.7276 34.3081 27.207 34.7875C27.9812 35.5617 27.6836 34.0474 27.6836 33.453" stroke="#BC0000" stroke-width="3" stroke-linecap="round"/>
<path d="M17.3886 33.024C16.275 33.2413 15.1306 33.8819 14.0642 33.8819C13.0554 33.8819 13.5024 31.9437 13.945 31.4273C15.4007 29.729 18.0051 30.6722 19.9624 30.1285C20.6205 29.9457 22.617 29.7358 23.1796 30.2358C23.5916 30.6021 24.2877 31.029 24.7762 31.3082C25.0509 31.4652 25.7518 31.6914 25.9201 31.9516C26.2109 32.4009 26.6195 32.4897 27.1474 32.607C27.4948 32.6842 27.702 33.2385 28.1126 33.2385C28.5388 33.2385 27.3145 31.6598 27.0402 31.5227" stroke="#BC0000" stroke-width="3" stroke-linecap="round"/>
<path d="M20.6552 11.0548C19.3785 11.0548 18.1306 11.4334 17.0691 12.1426C16.0076 12.8519 15.1803 13.86 14.6918 15.0394C14.2032 16.2189 14.0754 17.5167 14.3245 18.7688C14.5735 20.0209 15.1883 21.171 16.091 22.0737C16.9937 22.9764 18.1438 23.5912 19.3959 23.8402C20.648 24.0893 21.9458 23.9614 23.1253 23.4729C24.3047 22.9844 25.3128 22.157 26.0221 21.0956C26.7313 20.0341 27.1099 18.7861 27.1099 17.5095C27.1099 15.7976 26.4298 14.1558 25.2193 12.9454C24.0088 11.7349 22.3671 11.0548 20.6552 11.0548ZM20.6552 21.3823C19.8892 21.3823 19.1404 21.1552 18.5035 20.7297C17.8666 20.3041 17.3703 19.6993 17.0771 18.9916C16.784 18.2839 16.7073 17.5052 16.8567 16.754C17.0062 16.0027 17.375 15.3126 17.9167 14.771C18.4583 14.2294 19.1483 13.8605 19.8996 13.7111C20.6509 13.5617 21.4296 13.6384 22.1372 13.9315C22.8449 14.2246 23.4497 14.721 23.8753 15.3579C24.3008 15.9948 24.528 16.7435 24.528 17.5095C24.527 18.5363 24.1186 19.5208 23.3925 20.2469C22.6665 20.973 21.682 21.3813 20.6552 21.3823Z" fill="white"/>
<path d="M20.655 3.3092C17.0804 3.3092 13.5862 4.36918 10.6141 6.35509C7.64194 8.34099 5.32545 11.1636 3.95754 14.4661C2.58962 17.7685 2.23171 21.4024 2.92907 24.9083C3.62642 28.4142 5.34773 31.6345 7.87531 34.1621C10.4029 36.6897 13.6232 38.411 17.1291 39.1083C20.6349 39.8057 24.2689 39.4478 27.5713 38.0799C30.8737 36.7119 33.6964 34.3954 35.6823 31.4233C37.6682 28.4512 38.7282 24.9569 38.7282 21.3824C38.7227 16.5908 36.8168 11.997 33.4286 8.60876C30.0404 5.22056 25.4466 3.31467 20.655 3.3092ZM12.9093 34.7785V33.0009C12.9104 31.9741 13.3187 30.9896 14.0448 30.2635C14.7709 29.5374 15.7553 29.1291 16.7822 29.1281H24.5278C25.5546 29.1291 26.5391 29.5374 27.2652 30.2635C27.9913 30.9896 28.3996 31.9741 28.4006 33.0009V34.7785C26.0501 36.151 23.377 36.8743 20.655 36.8743C17.933 36.8743 15.2599 36.151 12.9093 34.7785ZM30.9722 32.9054C30.9465 31.2121 30.2566 29.5967 29.0512 28.4072C27.8457 27.2177 26.2213 26.5494 24.5278 26.5462H16.7822C15.0887 26.5494 13.4642 27.2177 12.2588 28.4072C11.0534 29.5967 10.3635 31.2121 10.3378 32.9054C7.99674 30.815 6.34583 28.0629 5.60368 25.0134C4.86152 21.9639 5.06311 18.7609 6.18177 15.8286C7.30042 12.8962 9.28336 10.3728 11.868 8.59247C14.4527 6.81213 17.5171 5.85885 20.6556 5.85885C23.7941 5.85885 26.8586 6.81213 29.4432 8.59247C32.0279 10.3728 34.0108 12.8962 35.1295 15.8286C36.2481 18.7609 36.4497 21.9639 35.7076 25.0134C34.9654 28.0629 33.3145 30.815 30.9735 32.9054H30.9722Z" fill="white"/>
</svg>
